<svg xmlns="http://www.w3.org/2000/svg" width="21.855" height="21.855" viewBox="0 0 21.855 21.855">
  <path id="facebook-15" d="M17.8,13.259a.455.455,0,0,1-.455.4H15.481a.455.455,0,0,0-.455.455V21.4a.455.455,0,0,0,.455.455h5.464a.911.911,0,0,0,.911-.911V.911A.911.911,0,0,0,20.945,0H.911A.911.911,0,0,0,0,.911V20.945a.911.911,0,0,0,.911.911H10.928a.455.455,0,0,0,.455-.455V14.115a.455.455,0,0,0-.455-.455H9.106a.455.455,0,0,1-.455-.455V10.472a.455.455,0,0,1,.455-.455h1.821a.455.455,0,0,0,.455-.455V8.369a5.182,5.182,0,0,1,5.182-5.182h1.193a.455.455,0,0,1,.455.455V6.375a.455.455,0,0,1-.455.455H16.565a1.539,1.539,0,0,0-1.539,1.539h0V9.562a.455.455,0,0,0,.455.455h2.213a.455.455,0,0,1,.455.51Z" fill="#122b2e"/>
</svg>
