<svg xmlns="http://www.w3.org/2000/svg" width="25.787" height="23.679" viewBox="0 0 25.787 23.679">
  <path id="heart" d="M25.223,4.579A7.25,7.25,0,0,0,19.562.009a7.43,7.43,0,0,0-6.68,2.928A7.453,7.453,0,0,0,6.2.009,7.243,7.243,0,0,0,.542,4.579a8.433,8.433,0,0,0,1.585,8.527c2.276,2.847,10.032,10.06,10.365,10.37a.264.264,0,0,0,.038.029c.014.01.024.019.038.029a.256.256,0,0,0,.062.033c.014,0,.024.014.038.019s.048.014.071.024.024.01.033.01a.85.85,0,0,0,.11.01.426.426,0,0,0,.11-.01.088.088,0,0,0,.033-.01.419.419,0,0,0,.071-.024.282.282,0,0,0,.038-.019.393.393,0,0,0,.062-.033c.014-.01.024-.019.038-.029a.264.264,0,0,1,.038-.029c.329-.3,8.084-7.522,10.365-10.37a8.433,8.433,0,0,0,1.585-8.527h0Zm-2.481,7.813c-1.938,2.423-8.227,8.351-9.855,9.879-1.633-1.528-7.918-7.456-9.855-9.879A7.3,7.3,0,0,1,1.608,5.008,6.1,6.1,0,0,1,6.355,1.146c2.195-.3,4.352.786,6.07,3.047,0,0,.01.01.014.014l.043.043a.308.308,0,0,0,.043.038s.01.01.014.014.019.01.029.019.033.024.052.033l.052.024.048.019.062.014a.21.21,0,0,1,.048.01h.11A.279.279,0,0,0,13,4.413a.169.169,0,0,0,.048-.01c.019,0,.038-.014.057-.019s.029-.014.043-.019.038-.024.057-.033l.029-.014s.01-.01.014-.01l.043-.043a.308.308,0,0,0,.038-.043s.01-.01.014-.014c1.719-2.262,3.871-3.347,6.07-3.047a6.1,6.1,0,0,1,4.747,3.861,7.32,7.32,0,0,1-1.414,7.384h0Z" transform="translate(0.011 0.051)" fill="#122b2e" opacity="0.601"/>
</svg>
