<svg xmlns="http://www.w3.org/2000/svg" width="86.554" height="44.85" viewBox="0 0 86.554 44.85">
  <path id="icon-room2" d="M73.853,26.8l-7.44,16.747h-3.59a.653.653,0,1,0,0,1.305H85.9a.653.653,0,1,0,0-1.305H83.317L75.877,26.8h8.3a1.384,1.384,0,0,0,1.384-1.384V23.965a1.384,1.384,0,0,0-1.384-1.384h-18.6a1.384,1.384,0,0,0-1.384,1.384v1.449A1.384,1.384,0,0,0,65.578,26.8h8.276ZM44.706,43.545H18.953V24.788a6.54,6.54,0,0,0-13.079,0V43.545H.653a.653.653,0,0,0,0,1.305H58.816a.653.653,0,0,0,0-1.305H57.785V24.788a6.54,6.54,0,0,0-13.079,0Zm23.13,0h6.37V29.212Zm7.675,0h6.37l-6.37-14.332Zm-57.864,0V24.788a5.234,5.234,0,0,0-10.468,0V43.545Zm38.832,0V24.788a5.234,5.234,0,0,0-10.468,0V43.545ZM43.7,28.834H19.958a.653.653,0,1,0,0,1.305H43.7a.653.653,0,0,0,0-1.305Zm40.529-4.869v1.449a.084.084,0,0,1-.078.078h-18.6a.084.084,0,0,1-.078-.078V23.965a.084.084,0,0,1,.078-.078h18.6A.084.084,0,0,1,84.231,23.965ZM74.206,10.1v2.363h-.248v-.9a.653.653,0,1,0-1.305,0v1.5a.608.608,0,0,0,.222.483.649.649,0,0,0,.326.2c.052,0,.1.013.157.013h.848v1.71H70.851a.645.645,0,0,0-.5.235.7.7,0,0,0-.144.535l1.005,5.521a.65.65,0,1,0,1.279-.235l-.861-4.751H78.1l-.861,4.751a.65.65,0,1,0,1.279.235l1.005-5.521a.61.61,0,0,0-.144-.535.666.666,0,0,0-.5-.235H75.524V12.74c.392,0,.835.013.835.013a.708.708,0,0,0,.47-.183.62.62,0,0,0,.2-.47V11.095a.653.653,0,1,0-1.305,0v.339h-.2V10.09a.653.653,0,1,0-1.305,0h0ZM51.9,17.125V13.81A13.815,13.815,0,0,0,38.088,0H25.571a13.815,13.815,0,0,0-13.81,13.81v3.315a.653.653,0,0,0,1.305,0V13.81a12.506,12.506,0,0,1,12.5-12.5H38.088a12.506,12.506,0,0,1,12.5,12.5v3.315a.653.653,0,0,0,1.305,0h0Z" fill="#cb9842" fill-rule="evenodd"/>
</svg>
