<svg xmlns="http://www.w3.org/2000/svg" width="35.142" height="35.692" viewBox="0 0 35.142 35.692">
  <g id="icon-sauna" transform="translate(0.054 0.1)">
    <path id="Path_209" data-name="Path 209" d="M158.086,0A6.388,6.388,0,0,0,151.7,6.386V7.24a6.386,6.386,0,1,0,12.772,0V6.386A6.393,6.393,0,0,0,158.086,0Zm5.532,7.24a5.532,5.532,0,1,1-11.064,0V6.386a5.532,5.532,0,1,1,11.064,0Z" transform="translate(-140.577 0)" fill="#cb9842" stroke="#cb9842" stroke-width="0.2"/>
    <path id="Path_210" data-name="Path 210" d="M.584,220.106c3.963-.971,6.912-.832,8.116.365a5.043,5.043,0,0,0,3.657,1.263,15.622,15.622,0,0,0,5.306-1.16c.161-.051,7.452-2.423,9.773-.1a4.987,4.987,0,0,0,3.627,1.27,12.6,12.6,0,0,0,3.605-.577.425.425,0,1,0-.234-.817c-1.671.482-4.664,1.066-6.269-.365v-4.35a5.543,5.543,0,0,0-5.532-5.532H12.4a5.543,5.543,0,0,0-5.532,5.532v3.109a17.033,17.033,0,0,0-6.488.54.434.434,0,0,0-.314.511.426.426,0,0,0,.518.321h0Zm7.138-4.481a4.691,4.691,0,0,1,4.686-4.686H22.625a4.691,4.691,0,0,1,4.686,4.686v3.708c-3.131-1.788-9.634.336-9.926.431-.007,0-.007.007-.015.007h-.015c-.058.029-5.722,2.408-8.043.095a3.951,3.951,0,0,0-1.576-.92v-3.321Z" transform="translate(0 -194.766)" fill="#cb9842" stroke="#cb9842" stroke-width="0.2"/>
    <path id="Path_211" data-name="Path 211" d="M.769,386.562c3.963-.971,6.912-.832,8.116.365a5.043,5.043,0,0,0,3.657,1.263,15.673,15.673,0,0,0,5.306-1.16c.161-.051,7.452-2.423,9.773-.1a4.987,4.987,0,0,0,3.627,1.27,12.6,12.6,0,0,0,3.605-.577.425.425,0,0,0-.234-.817c-1.708.5-4.824,1.1-6.393-.467-2.708-2.708-10.327-.212-10.656-.1-.007,0-.007.007-.015.007h-.015c-.058.029-5.722,2.408-8.043.095C7.659,384.5,3.63,385,.579,385.745a.421.421,0,1,0,.2.817H.769Z" transform="translate(-0.185 -356.967)" fill="#cb9842" stroke="#cb9842" stroke-width="0.2"/>
    <path id="Path_212" data-name="Path 212" d="M.769,444.962c3.963-.971,6.912-.832,8.116.365a5.043,5.043,0,0,0,3.657,1.263,15.672,15.672,0,0,0,5.306-1.16c.161-.051,7.452-2.423,9.773-.1a4.987,4.987,0,0,0,3.627,1.27,12.6,12.6,0,0,0,3.605-.577.424.424,0,0,0,.292-.525.43.43,0,0,0-.525-.292c-1.708.5-4.824,1.1-6.393-.467-2.708-2.708-10.327-.212-10.656-.1-.007,0-.007.007-.015.007h-.015c-.058.029-5.722,2.408-8.043.095C7.659,442.9,3.63,443.4.579,444.145a.421.421,0,1,0,.2.817H.769Z" transform="translate(-0.185 -411.105)" fill="#cb9842" stroke="#cb9842" stroke-width="0.2"/>
    <path id="Path_213" data-name="Path 213" d="M82.324,64.234a.362.362,0,0,0,.19.044.423.423,0,0,0,.38-.241c.044-.08.978-1.992-.08-3.051-.613-.613.08-2.051.08-2.058a.426.426,0,0,0-.2-.569.42.42,0,0,0-.562.2c-.044.08-.978,1.992.08,3.051.613.613-.08,2.051-.08,2.058a.417.417,0,0,0,.19.569Z" transform="translate(-75.697 -54.06)" fill="#cb9842" stroke="#cb9842" stroke-width="0.2"/>
    <path id="Path_214" data-name="Path 214" d="M18.634,145.362a.426.426,0,0,0,.2.569.362.362,0,0,0,.19.044.423.423,0,0,0,.38-.241c.044-.08.978-1.992-.08-3.051-.613-.613.08-2.051.08-2.058a.428.428,0,0,0-.766-.38c-.044.08-.978,1.992.08,3.051.62.62-.066,2.051-.08,2.073h0Z" transform="translate(-16.831 -129.795)" fill="#cb9842" stroke="#cb9842" stroke-width="0.2"/>
    <path id="Path_215" data-name="Path 215" d="M368.634,63.662a.426.426,0,0,0,.2.569.362.362,0,0,0,.19.044.423.423,0,0,0,.38-.241c.044-.08.978-1.992-.08-3.051-.613-.613.08-2.051.08-2.058a.428.428,0,0,0-.766-.38c-.044.08-.978,1.992.08,3.051.62.62-.066,2.051-.08,2.073h0Z" transform="translate(-341.287 -54.057)" fill="#cb9842" stroke="#cb9842" stroke-width="0.2"/>
    <path id="Path_216" data-name="Path 216" d="M438.634,145.362a.426.426,0,0,0,.2.569.362.362,0,0,0,.19.044.423.423,0,0,0,.38-.241c.044-.08.978-1.992-.08-3.051-.613-.613.08-2.051.08-2.058a.428.428,0,0,0-.766-.38c-.044.08-.978,1.992.08,3.051.62.62-.066,2.051-.08,2.073h0Z" transform="translate(-406.178 -129.795)" fill="#cb9842" stroke="#cb9842" stroke-width="0.2"/>
  </g>
</svg>
