<svg id="icon-calendar" xmlns="http://www.w3.org/2000/svg" width="16.729" height="18.227" viewBox="0 0 16.729 18.227">
  <path id="Path_93" data-name="Path 93" d="M76.753,208.714H87.44a.252.252,0,0,0,.253-.253v-8.108a.252.252,0,0,0-.253-.253H76.753a.252.252,0,0,0-.253.253v8.108A.252.252,0,0,0,76.753,208.714Zm10.433-3.208H85.02v-2.2h2.166Zm-2.673,0H82.348v-2.2h2.166Zm-2.673,0H79.675v-2.2h2.166Zm-2.673,0H77v-2.2h2.166ZM77,206.013h2.166v2.2H77Zm2.673,0h2.166v2.2H79.675Zm2.673,0h2.166v2.2H82.348Zm4.839,2.2H85.02v-2.2h2.166Zm0-5.4H85.02v-2.2h2.166Zm-2.673,0H82.348v-2.2h2.166Zm-2.673,0H79.675v-2.2h2.166ZM77,200.61h2.166v2.2H77Z" transform="translate(-73.733 -192.864)"/>
  <path id="Path_94" data-name="Path 94" d="M16.726,5.146V2.394a.941.941,0,0,0-.94-.94h-.98V.814A.815.815,0,0,0,13.992,0H12.784a.815.815,0,0,0-.814.814V1.45H4.756V.814A.812.812,0,0,0,3.945,0H2.738a.815.815,0,0,0-.814.814V1.45H.944A.944.944,0,0,0,0,2.39v14.9a.941.941,0,0,0,.94.94H15.789a.941.941,0,0,0,.94-.94V5.146h0ZM12.578.814a.206.206,0,0,1,.206-.206h1.208A.206.206,0,0,1,14.2.814V2.7a.206.206,0,0,1-.206.206H12.784a.206.206,0,0,1-.206-.206V.814Zm-10.05,0A.206.206,0,0,1,2.734.608H3.942a.206.206,0,0,1,.206.206V2.7a.206.206,0,0,1-.206.206H2.734A.206.206,0,0,1,2.528,2.7V.814ZM.608,2.394A.332.332,0,0,1,.94,2.061h.98V2.7a.815.815,0,0,0,.814.814H3.942A.815.815,0,0,0,4.756,2.7V2.061H11.97V2.7a.815.815,0,0,0,.814.814h1.208a.815.815,0,0,0,.814-.814V2.061h.98a.332.332,0,0,1,.333.333V4.86H.608V2.394ZM16.122,17.286a.332.332,0,0,1-.333.333H.94a.332.332,0,0,1-.333-.333V5.468H16.122V17.286Z"/>
</svg>
