<svg xmlns="http://www.w3.org/2000/svg" width="15.851" height="28.993" viewBox="0 0 15.851 28.993">
  <g id="icon-ski" transform="translate(-0.039 0.026)" opacity="0.601">
    <path id="Path_28" data-name="Path 28" d="M35.128,202.516a.23.23,0,0,1-.228-.228v-1.36a.228.228,0,1,1,.457,0v1.36A.227.227,0,0,1,35.128,202.516Z" transform="translate(-33.052 -190.31)" fill="#122b2e"/>
    <path id="Path_29" data-name="Path 29" d="M52.528,202.516a.23.23,0,0,1-.228-.228v-1.36a.228.228,0,1,1,.457,0v1.36A.227.227,0,0,1,52.528,202.516Z" transform="translate(-49.549 -190.31)" fill="#122b2e"/>
    <path id="Path_30" data-name="Path 30" d="M20.347,524.057H17.628a.228.228,0,0,1,0-.457h2.719a.23.23,0,0,1,.228.228A.227.227,0,0,1,20.347,524.057Z" transform="translate(-16.46 -496.454)" fill="#122b2e"/>
    <path id="Path_31" data-name="Path 31" d="M44.222,135.015a.23.23,0,0,1-.228-.228c0-.877-.446-3.56-.451-3.586a.226.226,0,0,1,.446-.073,36.721,36.721,0,0,1,.457,3.658.23.23,0,0,1-.228.228h.005Z" transform="translate(-41.242 -124.169)" fill="#122b2e"/>
    <path id="Path_32" data-name="Path 32" d="M26.822,135.015a.23.23,0,0,1-.228-.228c0-.877-.446-3.56-.451-3.586a.226.226,0,0,1,.446-.073,36.723,36.723,0,0,1,.457,3.658.23.23,0,0,1-.228.228h.005Z" transform="translate(-24.745 -124.169)" fill="#122b2e"/>
    <path id="Path_33" data-name="Path 33" d="M27.236,131.357h-.908a.228.228,0,1,1,0-.457h.908a.228.228,0,1,1,0,.457Z" transform="translate(-24.708 -124.132)" fill="#122b2e"/>
    <path id="Path_34" data-name="Path 34" d="M35.936,227.357h-.908a.228.228,0,1,1,0-.457h.908a.23.23,0,0,1,.228.228A.227.227,0,0,1,35.936,227.357Z" transform="translate(-32.957 -215.15)" fill="#122b2e"/>
    <path id="Path_35" data-name="Path 35" d="M43.828,244.112a.23.23,0,0,1-.228-.228V227.128a.228.228,0,0,1,.457,0v16.761a.227.227,0,0,1-.228.228h0Z" transform="translate(-41.3 -215.15)" fill="#122b2e"/>
    <path id="Path_36" data-name="Path 36" d="M.266,143.678a.235.235,0,0,1-.083-.016.235.235,0,0,1-.13-.3l1.432-3.622a.23.23,0,0,1,.3-.13.235.235,0,0,1,.13.3L.473,143.532a.23.23,0,0,1-.213.145H.266Z" transform="translate(0 -132.379)" fill="#122b2e"/>
    <path id="Path_37" data-name="Path 37" d="M262.028,202.516a.23.23,0,0,1-.228-.228v-1.36a.228.228,0,1,1,.457,0v1.36A.227.227,0,0,1,262.028,202.516Z" transform="translate(-248.178 -190.31)" fill="#122b2e"/>
    <path id="Path_38" data-name="Path 38" d="M244.628,202.516a.23.23,0,0,1-.228-.228v-1.36a.228.228,0,1,1,.457,0v1.36A.23.23,0,0,1,244.628,202.516Z" transform="translate(-231.681 -190.31)" fill="#122b2e"/>
    <path id="Path_39" data-name="Path 39" d="M229.847,524.057h-2.719a.228.228,0,0,1,0-.457h2.719a.228.228,0,1,1,0,.457Z" transform="translate(-215.089 -496.454)" fill="#122b2e"/>
    <path id="Path_40" data-name="Path 40" d="M244.628,135.015a.23.23,0,0,1-.228-.228,36.719,36.719,0,0,1,.457-3.658.227.227,0,0,1,.259-.187.224.224,0,0,1,.187.259c0,.026-.451,2.709-.451,3.586s-.1.228-.228.228h0Z" transform="translate(-231.681 -124.169)" fill="#122b2e"/>
    <path id="Path_41" data-name="Path 41" d="M262.028,135.015a.23.23,0,0,1-.228-.228,36.724,36.724,0,0,1,.457-3.658.226.226,0,1,1,.446.073c0,.026-.451,2.709-.451,3.586s-.1.228-.228.228h.005Z" transform="translate(-248.178 -124.169)" fill="#122b2e"/>
    <path id="Path_42" data-name="Path 42" d="M254.136,131.357h-.908a.228.228,0,1,1,0-.457h.908a.23.23,0,0,1,.228.228A.227.227,0,0,1,254.136,131.357Z" transform="translate(-239.834 -124.132)" fill="#122b2e"/>
    <path id="Path_43" data-name="Path 43" d="M245.436,227.357h-.908a.228.228,0,1,1,0-.457h.908a.23.23,0,0,1,.228.228A.227.227,0,0,1,245.436,227.357Z" transform="translate(-231.586 -215.15)" fill="#122b2e"/>
    <path id="Path_44" data-name="Path 44" d="M253.328,244.112a.23.23,0,0,1-.228-.228V227.128a.228.228,0,0,1,.457,0v16.761a.227.227,0,0,1-.228.228Z" transform="translate(-239.929 -215.15)" fill="#122b2e"/>
    <path id="Path_45" data-name="Path 45" d="M270.748,143.666a.236.236,0,0,1-.213-.145L269.1,139.9a.228.228,0,1,1,.426-.166l1.432,3.622a.228.228,0,0,1-.13.3.235.235,0,0,1-.083.016Z" transform="translate(-255.086 -132.367)" fill="#122b2e"/>
    <path id="Path_46" data-name="Path 46" d="M96.228,88.92A.23.23,0,0,1,96,88.691V78.728a.228.228,0,1,1,.457,0v9.963A.227.227,0,0,1,96.228,88.92Z" transform="translate(-90.981 -74.451)" fill="#122b2e"/>
    <path id="Path_47" data-name="Path 47" d="M131.128,88.92a.23.23,0,0,1-.228-.228V78.728a.228.228,0,1,1,.457,0v9.963A.227.227,0,0,1,131.128,88.92Z" transform="translate(-124.07 -74.451)" fill="#122b2e"/>
    <path id="Path_48" data-name="Path 48" d="M96.228,4.506A.23.23,0,0,1,96,4.277,10.262,10.262,0,0,1,96.929.1a.231.231,0,0,1,.306-.1.227.227,0,0,1,.1.3,9.916,9.916,0,0,0-.882,3.975c0,2.179-.1.228-.228.228h0Z" transform="translate(-90.981 0)" fill="#122b2e"/>
    <path id="Path_49" data-name="Path 49" d="M114.565,4.559a.23.23,0,0,1-.228-.228,9.915,9.915,0,0,0-.882-3.975.22.22,0,0,1,.1-.3.227.227,0,0,1,.306.1,10.263,10.263,0,0,1,.929,4.177.23.23,0,0,1-.228.228h0Z" transform="translate(-107.507 -0.053)" fill="#122b2e"/>
    <path id="Path_50" data-name="Path 50" d="M97.617,533.694h-.908a.219.219,0,0,1-.2-.125l-.451-.908a.229.229,0,1,1,.41-.2l.389.778h.628l.389-.778a.229.229,0,0,1,.41.2l-.451.908a.23.23,0,0,1-.2.125h-.01Z" transform="translate(-91.01 -504.732)" fill="#122b2e"/>
    <path id="Path_51" data-name="Path 51" d="M90.147,297.157H87.428a.228.228,0,1,1,0-.457h2.719a.228.228,0,1,1,0,.457Z" transform="translate(-82.638 -281.328)" fill="#122b2e"/>
    <path id="Path_52" data-name="Path 52" d="M90.147,279.657H87.428a.228.228,0,0,1,0-.457h2.719a.228.228,0,0,1,0,.457Z" transform="translate(-82.638 -264.736)" fill="#122b2e"/>
    <path id="Path_53" data-name="Path 53" d="M97.131,339.509A1.134,1.134,0,0,1,96,338.378c0-.623.1-.228.228-.228a.23.23,0,0,1,.228.228.68.68,0,1,0,1.36,0c0-.374.1-.228.228-.228a.23.23,0,0,1,.228.228,1.134,1.134,0,0,1-1.131,1.131h-.01Z" transform="translate(-90.981 -320.51)" fill="#122b2e"/>
    <path id="Path_54" data-name="Path 54" d="M113.628,315.916a.23.23,0,0,1-.228-.228v-1.36a.228.228,0,1,1,.457,0v1.36A.227.227,0,0,1,113.628,315.916Z" transform="translate(-107.478 -297.825)" fill="#122b2e"/>
    <path id="Path_55" data-name="Path 55" d="M87.428,280.565a.23.23,0,0,1-.228-.228v-.908a.228.228,0,1,1,.457,0v.908A.227.227,0,0,1,87.428,280.565Z" transform="translate(-82.638 -264.736)" fill="#122b2e"/>
    <path id="Path_56" data-name="Path 56" d="M139.828,280.565a.23.23,0,0,1-.228-.228v-.908a.228.228,0,1,1,.457,0v.908A.23.23,0,0,1,139.828,280.565Z" transform="translate(-132.319 -264.736)" fill="#122b2e"/>
    <path id="Path_57" data-name="Path 57" d="M96.228,317.731A.23.23,0,0,1,96,317.5V305.728a.228.228,0,1,1,.457,0V317.5a.227.227,0,0,1-.228.228Z" transform="translate(-90.981 -289.672)" fill="#122b2e"/>
    <path id="Path_58" data-name="Path 58" d="M131.128,317.731a.23.23,0,0,1-.228-.228V305.728a.228.228,0,1,1,.457,0V317.5a.227.227,0,0,1-.228.228Z" transform="translate(-124.07 -289.672)" fill="#122b2e"/>
    <path id="Path_59" data-name="Path 59" d="M113.628,95.809a.23.23,0,0,1-.228-.228V87.428a.228.228,0,1,1,.457,0V95.58A.227.227,0,0,1,113.628,95.809Z" transform="translate(-107.478 -82.699)" fill="#122b2e"/>
    <path id="Path_60" data-name="Path 60" d="M113.628,399.5a.23.23,0,0,1-.228-.228v-6.341a.228.228,0,0,1,.457,0v6.341A.227.227,0,0,1,113.628,399.5Z" transform="translate(-107.478 -372.347)" fill="#122b2e"/>
    <path id="Path_61" data-name="Path 61" d="M166.028,88.92a.23.23,0,0,1-.228-.228V78.728a.228.228,0,1,1,.457,0v9.963A.23.23,0,0,1,166.028,88.92Z" transform="translate(-157.159 -74.451)" fill="#122b2e"/>
    <path id="Path_62" data-name="Path 62" d="M200.928,88.92a.23.23,0,0,1-.228-.228V78.728a.228.228,0,0,1,.457,0v9.963A.227.227,0,0,1,200.928,88.92Z" transform="translate(-190.248 -74.451)" fill="#122b2e"/>
    <path id="Path_63" data-name="Path 63" d="M166.028,4.506a.23.23,0,0,1-.228-.228A10.263,10.263,0,0,1,166.729.1a.225.225,0,0,1,.4.2,9.916,9.916,0,0,0-.882,3.975.23.23,0,0,1-.228.228h0Z" transform="translate(-157.159 0)" fill="#122b2e"/>
    <path id="Path_64" data-name="Path 64" d="M184.365,4.559a.23.23,0,0,1-.228-.228,9.916,9.916,0,0,0-.882-3.975.22.22,0,0,1,.1-.3.221.221,0,0,1,.3.1,10.262,10.262,0,0,1,.929,4.177.23.23,0,0,1-.228.228h0Z" transform="translate(-173.685 -0.053)" fill="#122b2e"/>
    <path id="Path_65" data-name="Path 65" d="M167.417,533.694h-.908a.219.219,0,0,1-.2-.125l-.451-.908a.229.229,0,0,1,.41-.2l.389.778h.628l.389-.778a.229.229,0,0,1,.41.2l-.451.908a.23.23,0,0,1-.2.125h-.01Z" transform="translate(-157.188 -504.732)" fill="#122b2e"/>
    <path id="Path_66" data-name="Path 66" d="M159.947,297.157h-2.719a.228.228,0,1,1,0-.457h2.719a.228.228,0,1,1,0,.457Z" transform="translate(-148.816 -281.328)" fill="#122b2e"/>
    <path id="Path_67" data-name="Path 67" d="M159.947,279.657h-2.719a.228.228,0,1,1,0-.457h2.719a.228.228,0,0,1,0,.457Z" transform="translate(-148.816 -264.736)" fill="#122b2e"/>
    <path id="Path_68" data-name="Path 68" d="M167.031,339.509a1.134,1.134,0,0,1-1.131-1.131c0-.623.1-.228.228-.228a.23.23,0,0,1,.228.228.68.68,0,1,0,1.36,0c0-.374.1-.228.228-.228a.23.23,0,0,1,.228.228,1.134,1.134,0,0,1-1.131,1.131h-.01Z" transform="translate(-157.254 -320.51)" fill="#122b2e"/>
    <path id="Path_69" data-name="Path 69" d="M183.528,315.916a.23.23,0,0,1-.228-.228v-1.36a.228.228,0,1,1,.457,0v1.36A.23.23,0,0,1,183.528,315.916Z" transform="translate(-173.751 -297.825)" fill="#122b2e"/>
    <path id="Path_70" data-name="Path 70" d="M157.328,280.565a.23.23,0,0,1-.228-.228v-.908a.228.228,0,1,1,.457,0v.908A.227.227,0,0,1,157.328,280.565Z" transform="translate(-148.911 -264.736)" fill="#122b2e"/>
    <path id="Path_71" data-name="Path 71" d="M209.628,280.565a.23.23,0,0,1-.228-.228v-.908a.228.228,0,1,1,.457,0v.908A.23.23,0,0,1,209.628,280.565Z" transform="translate(-198.497 -264.736)" fill="#122b2e"/>
    <path id="Path_72" data-name="Path 72" d="M166.028,317.731a.23.23,0,0,1-.228-.228V305.728a.228.228,0,1,1,.457,0V317.5a.23.23,0,0,1-.228.228Z" transform="translate(-157.159 -289.672)" fill="#122b2e"/>
    <path id="Path_73" data-name="Path 73" d="M200.928,317.731a.23.23,0,0,1-.228-.228V305.728a.228.228,0,1,1,.457,0V317.5a.227.227,0,0,1-.228.228Z" transform="translate(-190.248 -289.672)" fill="#122b2e"/>
    <path id="Path_74" data-name="Path 74" d="M183.528,95.809a.23.23,0,0,1-.228-.228V87.428a.228.228,0,1,1,.457,0V95.58A.23.23,0,0,1,183.528,95.809Z" transform="translate(-173.751 -82.699)" fill="#122b2e"/>
    <path id="Path_75" data-name="Path 75" d="M183.528,399.5a.23.23,0,0,1-.228-.228v-6.341a.228.228,0,0,1,.457,0v6.341A.23.23,0,0,1,183.528,399.5Z" transform="translate(-173.751 -372.347)" fill="#122b2e"/>
  </g>
</svg>
