<svg xmlns="http://www.w3.org/2000/svg" width="73.422" height="51.772" viewBox="0 0 73.422 51.772">
  <g id="icon-best-rate" transform="translate(0.191 0.088)">
    <path id="Path_76" data-name="Path 76" d="M130.962,92.07l-4.53,13.768-14.719-.03c-.594,0-.668.55-.282.876l11.926,8.481-4.589,13.768c-.178.52.356.772.728.55l11.9-8.555,11.9,8.555c.52.267.847-.134.728-.55l-4.589-13.768,11.926-8.481a.485.485,0,0,0-.282-.876l-14.719.03-4.53-13.768a.5.5,0,0,0-.906,0h.045Zm.446,1.678,4.188,12.728a.482.482,0,0,0,.46.327l13.53-.03-10.961,7.8a.518.518,0,0,0-.178.55l4.233,12.7-10.976-7.887a.468.468,0,0,0-.55,0L120.18,127.82l4.233-12.7a.494.494,0,0,0-.178-.55l-10.961-7.8,13.531.03a.512.512,0,0,0,.46-.327l4.188-12.728Z" transform="translate(-94.753 -78.143)" fill="#cb9842" stroke="#cb9842" stroke-width="0.2" fill-rule="evenodd"/>
    <path id="Path_77" data-name="Path 77" d="M363.861,217.325l-2.2,6.7H354.5c-.639.089-.52.639-.267.876l5.792,4.114-2.213,6.7c-.193.564.357.787.728.55l5.778-4.159,5.807,4.159a.469.469,0,0,0,.728-.55l-2.213-6.7,5.792-4.114a.48.48,0,0,0-.267-.876H367l-2.228-6.7a.5.5,0,0,0-.906,0Zm.46,1.678,1.871,5.659a.477.477,0,0,0,.446.327h6l-4.842,3.446a.518.518,0,0,0-.178.55l1.871,5.629-4.9-3.505a.468.468,0,0,0-.549,0l-4.857,3.49,1.871-5.629a.494.494,0,0,0-.178-.55l-4.842-3.446h6a.512.512,0,0,0,.46-.327l1.857-5.659Z" transform="translate(-301.527 -184.787)" fill="#cb9842" stroke="#cb9842" stroke-width="0.2" fill-rule="evenodd"/>
    <path id="Path_78" data-name="Path 78" d="M9.817,216.459l-2.2,6.743-7.2-.03a.474.474,0,0,0-.282.876l5.792,4.144-2.228,6.7c-.178.594.416.743.728.55l5.822-4.159,5.822,4.159c.475.342.847-.149.728-.55l-2.258-6.7,5.837-4.144a.483.483,0,0,0-.282-.876l-7.2.03-2.2-6.743a.5.5,0,0,0-.906,0h.03Zm.46,1.693,1.842,5.674a.482.482,0,0,0,.46.327l6.015-.03L13.723,227.6a.518.518,0,0,0-.178.549l1.886,5.629-4.886-3.505a.468.468,0,0,0-.55,0l-4.9,3.505,1.871-5.629a.494.494,0,0,0-.178-.549L1.93,224.123l6.03.03a.512.512,0,0,0,.46-.327l1.842-5.674Z" transform="translate(0 -184.056)" fill="#cb9842" stroke="#cb9842" stroke-width="0.2" fill-rule="evenodd"/>
    <path id="Path_79" data-name="Path 79" d="M243.5.53v8.2a.476.476,0,1,0,.951,0V.53A.477.477,0,1,0,243.5.53Z" transform="translate(-207.41)" fill="#cb9842" stroke="#cb9842" stroke-width="0.2" fill-rule="evenodd"/>
    <path id="Path_80" data-name="Path 80" d="M323.8,93.37l-5.451,5.941a.478.478,0,1,0,.7.653l5.451-5.941C324.91,93.563,324.168,92.939,323.8,93.37Z" transform="translate(-271.012 -79.369)" fill="#cb9842" stroke="#cb9842" stroke-width="0.2" fill-rule="evenodd"/>
    <path id="Path_81" data-name="Path 81" d="M133.451,94.275l5.51,5.9a.484.484,0,1,0,.7-.668l-5.51-5.9A.484.484,0,0,0,133.451,94.275Z" transform="translate(-113.609 -79.575)" fill="#cb9842" stroke="#cb9842" stroke-width="0.2" fill-rule="evenodd"/>
  </g>
</svg>
