<svg xmlns="http://www.w3.org/2000/svg" width="12.335" height="12.387" viewBox="0 0 12.335 12.387">
  <g id="icon-map" transform="translate(0.15 0.1)">
    <path id="Path_108" data-name="Path 108" d="M7.019.9a2.786,2.786,0,0,0-.732,1.241L3.848,1.554H3.793l-3.06.818A.979.979,0,0,0,0,3.328v7.583a1.022,1.022,0,0,0,.38.79.921.921,0,0,0,.591.211.73.73,0,0,0,.254-.028l2.58-.72,3.931.971h.055l3.327-.831a1,1,0,0,0,.747-.959V3.95a2.808,2.808,0,0,0,.169-.971A2.861,2.861,0,0,0,11.162.907a2.932,2.932,0,0,0-4.143,0h0ZM1.143,11.573a.674.674,0,0,1-.607-.126.736.736,0,0,1-.282-.564V3.315a.7.7,0,0,1,.521-.677l2.874-.76v9.033l-2.509.662Zm2.791-.662V1.863l2.27.549a2.52,2.52,0,0,0-.055.564,2.9,2.9,0,0,0,.861,2.071l.607.607v6.159l-3.679-.9Zm7.653-.549a.721.721,0,0,1-.536.69l-3.143.775V5.951l1.1,1.1a.134.134,0,0,0,.2,0l1.988-1.988a2.776,2.776,0,0,0,.408-.521v5.821h-.015Zm-.607-5.5L9.093,6.741,7.218,4.866a2.706,2.706,0,0,1-.79-1.888A2.6,2.6,0,0,1,7.2,1.1a2.665,2.665,0,0,1,3.775,3.763h0Z" transform="translate(0 0)" fill="#122b2e" stroke="#122b2e" stroke-width="0.3"/>
    <path id="Path_109" data-name="Path 109" d="M311,64.3a1.3,1.3,0,1,0,1.3,1.3,1.3,1.3,0,0,0-1.3-1.3Zm0,2.3a1.014,1.014,0,1,1,1.014-1.014A1.019,1.019,0,0,1,311,66.6Z" transform="translate(-301.906 -62.633)" fill="#122b2e" stroke="#122b2e" stroke-width="0.3"/>
  </g>
</svg>
