<svg xmlns="http://www.w3.org/2000/svg" width="11.782" height="8.962" viewBox="0 0 11.782 8.962">
  <path id="icon-star" d="M9.3,8.96,5.967,7.029a.211.211,0,0,0-.2,0L2.435,8.96c-.137.08-.321-.028-.27-.156L3.436,5.68a.123.123,0,0,0-.063-.156L.046,3.594c-.137-.08-.067-.252.1-.252H4.3a.126.126,0,0,0,.119-.069L5.7.121a.192.192,0,0,1,.332,0L7.313,3.273a.126.126,0,0,0,.119.069H11.58c.17,0,.239.173.1.252L8.324,5.541a.087.087,0,0,0-.044.111L9.563,8.8c.051.128-.132.236-.27.156h0Z" transform="translate(0.027 -0.025)" fill="#122b2e"/>
</svg>
