<svg id="icon-bed" xmlns="http://www.w3.org/2000/svg" width="12.714" height="10.668" viewBox="0 0 12.714 10.668">
  <path id="Path_114" data-name="Path 114" d="M2.252,181.1h8.212a2.233,2.233,0,0,1,2.25,2.25v2.057a.2.2,0,0,1-.207.2H.207a.2.2,0,0,1-.207-.2V183.35a2.248,2.248,0,0,1,.665-1.6A2.212,2.212,0,0,1,2.25,181.1h0Zm8.212.4H2.252a1.831,1.831,0,0,0-1.3.54,1.878,1.878,0,0,0-.54,1.31V185.2h11.9v-1.848a1.864,1.864,0,0,0-1.85-1.85h0Z" transform="translate(0 -176.989)" fill="#122b2e"/>
  <path id="Path_115" data-name="Path 115" d="M9.1,271.1H21.4v.413H9.1Z" transform="translate(-8.893 -264.945)" fill="#122b2e"/>
  <path id="Path_116" data-name="Path 116" d="M92.173,0H97.64a1.585,1.585,0,0,1,1.571,1.573V4.307A.2.2,0,0,1,99,4.513H90.8a.2.2,0,0,1-.2-.207V1.573a1.543,1.543,0,0,1,.459-1.1A1.572,1.572,0,0,1,92.173,0ZM97.64.413H92.173a1.134,1.134,0,0,0-.826.345A1.157,1.157,0,0,0,91,1.573V4.111h7.8V1.573a1.108,1.108,0,0,0-.345-.815A1.112,1.112,0,0,0,97.64.413Z" transform="translate(-88.543)" fill="#122b2e"/>
  <path id="Path_117" data-name="Path 117" d="M158.6,92.655h1.641V91.013H158.6Zm1.848.4H158.4a.2.2,0,0,1-.2-.207V90.807a.2.2,0,0,1,.2-.207h2.057a.2.2,0,0,1,.207.207V92.85A.2.2,0,0,1,160.452,93.056Z" transform="translate(-154.608 -88.543)" fill="#122b2e"/>
  <path id="Path_118" data-name="Path 118" d="M293.715,92.655h1.641V91.013h-1.641v1.641Zm1.848.4h-2.057a.2.2,0,0,1-.207-.207V90.807a.2.2,0,0,1,.207-.207h2.057a.2.2,0,0,1,.207.207V92.85A.2.2,0,0,1,295.563,93.056Z" transform="translate(-286.641 -88.543)" fill="#122b2e"/>
  <path id="Path_119" data-name="Path 119" d="M1.435,363.135v.815a.2.2,0,0,1-.207.207H.207A.2.2,0,0,1,0,363.95v-2.043a.2.2,0,0,1,.207-.207h12.3a.2.2,0,0,1,.207.207v2.043a.2.2,0,0,1-.207.207H11.485a.2.2,0,0,1-.207-.207v-.815Zm-.413.608v-.815a.2.2,0,0,1,.207-.207H11.485a.2.2,0,0,1,.207.207v.815h.62V362.1H.413v1.641Z" transform="translate(0 -353.488)" fill="#122b2e"/>
</svg>
