<svg xmlns="http://www.w3.org/2000/svg" width="52.176" height="51.563" viewBox="0 0 52.176 51.563">
  <path id="icon-person" d="M.716,49.414A.715.715,0,0,1,0,48.7V40.961a4.017,4.017,0,0,1,4.028-4.028h14.9a4.017,4.017,0,0,1,4.028,4.028V48.7a.716.716,0,0,1-1.432,0V40.961a2.576,2.576,0,0,0-2.583-2.583H4.028a2.576,2.576,0,0,0-2.583,2.583V48.7a.76.76,0,0,1-.2.512.7.7,0,0,1-.512.2H.716ZM7.238,23.4h0a5.3,5.3,0,0,1,3.926-1.752h.6A5.33,5.33,0,0,1,15.7,23.4a5.219,5.219,0,0,1,1.33,4.092l-.294,2.826h0a5.3,5.3,0,0,1-7.763,4.131A5.359,5.359,0,0,1,6.19,30.321L5.9,27.495h0A5.331,5.331,0,0,1,7.225,23.4h.013Zm.09,3.939.294,2.826h0a3.871,3.871,0,0,0,7.7,0l.294-2.826h0a3.868,3.868,0,0,0-3.849-4.3H11.19a3.868,3.868,0,0,0-3.849,4.3H7.328ZM26.4,26.5a.76.76,0,0,0,.512-.2L37.738,15.461a.717.717,0,0,0-1.01-1.01L26.4,24.784l-5.448-5.435a.717.717,0,0,0-1.01,1.01l5.947,5.947h0a.76.76,0,0,0,.512.2h0ZM26.4,0h0A25.784,25.784,0,0,0,2.161,34.605a.75.75,0,0,0,.371.422.725.725,0,0,0,.985-.921A24.34,24.34,0,1,1,26.4,50.13a.716.716,0,1,0,0,1.432A25.781,25.781,0,1,0,26.4,0Zm0,46.549h0A20.768,20.768,0,1,0,6.548,19.63a.718.718,0,0,0,.46.921.746.746,0,0,0,.55-.051.732.732,0,0,0,.345-.435A19.228,19.228,0,0,1,25.666,6.458v3.581a.716.716,0,0,0,1.432,0V6.445a19.343,19.343,0,0,1,18.62,18.62H42.138a.716.716,0,0,0,0,1.432h3.581A19.343,19.343,0,0,1,27.1,45.117V41.536a.716.716,0,0,0-1.432,0v4.3a.715.715,0,0,0,.716.716h0Z" fill="#cb9842"/>
</svg>
