<svg id="icon-time" xmlns="http://www.w3.org/2000/svg" width="36.207" height="36.207" viewBox="0 0 36.207 36.207">
  <path id="Path_196" data-name="Path 196" d="M30.97,30.821A18.049,18.049,0,0,0,36.207,18.1,15.351,15.351,0,0,0,33.045,7.881a.725.725,0,0,0-1.2.821,16.555,16.555,0,0,1,2.89,8.677H29.826a.724.724,0,0,0,0,1.448h4.914a16.6,16.6,0,0,1-4.364,10.526L26.91,25.888a.722.722,0,0,0-1.022,1.022l3.466,3.466a16.6,16.6,0,0,1-10.526,4.364V29.826a.724.724,0,0,0-1.448,0v4.914A16.6,16.6,0,0,1,6.853,30.375L10.325,26.9A.722.722,0,1,0,9.3,25.882L5.832,29.354A16.6,16.6,0,0,1,1.468,18.828H6.381a.724.724,0,0,0,0-1.448H1.468A16.6,16.6,0,0,1,5.832,6.853L9.3,10.325a.718.718,0,0,0,1.022,0,.718.718,0,0,0,0-1.022L6.853,5.832A16.6,16.6,0,0,1,17.379,1.468V6.381a.724.724,0,0,0,1.448,0V1.474a16.567,16.567,0,0,1,7.966,2.418.724.724,0,1,0,.756-1.235A18.084,18.084,0,0,0,5.386,5.237.732.732,0,0,0,5.3,5.3a.415.415,0,0,0-.065.084,18.06,18.06,0,0,0,0,25.435.732.732,0,0,0,.065.084.415.415,0,0,0,.084.065,18.06,18.06,0,0,0,25.435,0,.732.732,0,0,0,.084-.065.685.685,0,0,0,.065-.078h0Z" fill="#cb9842"/>
  <path id="Path_197" data-name="Path 197" d="M206.131,13.275a.723.723,0,0,0-1.054.989l4.138,4.416s.013.006.013.013.006.013.013.013a.359.359,0,0,0,.052.039c.019.013.032.026.052.039l.078.039c.019.006.032.019.052.026a.663.663,0,0,0,.091.026.092.092,0,0,1,.039.013.969.969,0,0,0,.142.013.462.462,0,0,0,.136-.013.12.12,0,0,0,.045-.013.476.476,0,0,0,.091-.026c.019-.006.032-.019.052-.026a.706.706,0,0,0,.071-.039c.019-.013.032-.026.052-.039s.032-.026.052-.039c0,0,.006-.013.013-.013s.006-.006.013-.013L226.95,1.308a.722.722,0,1,0-1.041-1l-16.164,16.83-3.614-3.86Z" transform="translate(-191.635 -0.079)" fill="#cb9842"/>
</svg>
