<svg id="icon-filter" xmlns="http://www.w3.org/2000/svg" width="10.256" height="7.599" viewBox="0 0 10.256 7.599">
  <path id="Path_82" data-name="Path 82" d="M140.79,45.128h-6.626a.264.264,0,1,1,0-.528h6.626a.264.264,0,0,1,0,.528Z" transform="translate(-130.799 -43.567)"/>
  <path id="Path_83" data-name="Path 83" d="M1.3,45.128H.264a.264.264,0,0,1,0-.528H1.3a.268.268,0,0,1,.264.264A.255.255,0,0,1,1.3,45.128Z" transform="translate(0 -43.567)"/>
  <path id="Path_84" data-name="Path 84" d="M346.806,152.728h-1.742a.264.264,0,1,1,0-.528h1.742a.264.264,0,1,1,0,.528Z" transform="translate(-336.814 -148.675)"/>
  <path id="Path_85" data-name="Path 85" d="M6.182,152.728H.264a.264.264,0,0,1,0-.528H6.182a.264.264,0,0,1,0,.528Z" transform="translate(0 -148.675)"/>
  <path id="Path_86" data-name="Path 86" d="M140.79,261.228h-6.626a.264.264,0,1,1,0-.528h6.626a.264.264,0,1,1,0,.528Z" transform="translate(-130.799 -254.662)"/>
  <path id="Path_87" data-name="Path 87" d="M1.3,260.447H.264A.269.269,0,0,1,0,260.183a.284.284,0,0,1,.264-.283H1.3a.269.269,0,0,1,.264.264A.25.25,0,0,1,1.3,260.447Z" transform="translate(0 -253.88)"/>
  <path id="Path_88" data-name="Path 88" d="M45.9,2.594a1.307,1.307,0,0,1-1.3-1.3,1.3,1.3,0,1,1,2.594,0A1.293,1.293,0,0,1,45.9,2.594Zm0-2.066a.769.769,0,1,0,.769.769A.769.769,0,0,0,45.9.528Z" transform="translate(-43.567)"/>
  <path id="Path_89" data-name="Path 89" d="M256.8,110.194a1.3,1.3,0,1,1,1.3-1.3A1.293,1.293,0,0,1,256.8,110.194Zm0-2.066a.769.769,0,1,0,.769.769A.768.768,0,0,0,256.8,108.128Z" transform="translate(-249.582 -105.108)"/>
  <path id="Path_90" data-name="Path 90" d="M45.9,218.694a1.3,1.3,0,1,1,1.3-1.3A1.28,1.28,0,0,1,45.9,218.694Zm0-2.066a.769.769,0,1,0,.769.769A.769.769,0,0,0,45.9,216.628Z" transform="translate(-43.567 -211.095)"/>
</svg>
