<svg xmlns="http://www.w3.org/2000/svg" width="30.721" height="36.629" viewBox="0 0 30.721 36.629">
  <g id="noun-wine-1055161" transform="translate(-138.7 -28.1)">
    <path id="Path_203" data-name="Path 203" d="M148.977,36.2V28.689a.586.586,0,0,0-.589-.589h-5.2a.583.583,0,0,0-.414.174.6.6,0,0,0-.174.414V36.2a5.357,5.357,0,0,1-1.766,3.939,6.565,6.565,0,0,0-2.137,4.8V64.141a.583.583,0,0,0,.174.414.6.6,0,0,0,.414.174h12.995a.586.586,0,0,0,.589-.589V44.947a6.537,6.537,0,0,0-2.137-4.8,5.388,5.388,0,0,1-1.759-3.939Zm2.718,27.334H139.877V44.932a5.388,5.388,0,0,1,1.759-3.939,6.537,6.537,0,0,0,2.137-4.8V29.263h4.019v6.926a6.522,6.522,0,0,0,2.137,4.8h0a5.376,5.376,0,0,1,1.759,3.939Z" fill="#cb9842"/>
    <path id="Path_204" data-name="Path 204" d="M410.021,247.5H399.389a.586.586,0,0,0-.589.589v6.5a5.915,5.915,0,0,0,5.32,5.88v6.526h-2.66a.589.589,0,0,0,0,1.177h6.5a.589.589,0,0,0,0-1.177H405.3v-6.526a5.92,5.92,0,0,0,5.32-5.88v-6.5a.592.592,0,0,0-.6-.589Zm-.589,7.086a4.724,4.724,0,0,1-9.448,0v-5.909h9.455l-.007,5.909Z" transform="translate(-241.197 -203.455)" fill="#cb9842"/>
  </g>
</svg>
