<svg xmlns="http://www.w3.org/2000/svg" width="7.583" height="12.393" viewBox="0 0 7.583 12.393">
  <g id="noun-arrow-70943" transform="translate(222.633 79.743) rotate(180)">
    <path id="Path_145" data-name="Path 145" d="M218.8,79.493a.317.317,0,0,0,.317-.317V68.643l2.724,2.724a.315.315,0,0,0,.448,0,.315.315,0,0,0,0-.448l-3.223-3.225a.315.315,0,0,0-.448,0l-3.225,3.225a.317.317,0,0,0,.448.448l2.639-2.639V79.175a.321.321,0,0,0,.32.317Z" transform="translate(0 0)" fill="#377e25" stroke="#377e25" stroke-width="0.5"/>
  </g>
</svg>
