<svg xmlns="http://www.w3.org/2000/svg" width="47.349" height="35.781" viewBox="0 0 47.349 35.781">
  <g id="supper" transform="translate(-0.066 0.1)">
    <path id="Path_198" data-name="Path 198" d="M32.572,287.274H14.88c-9.277,0-13.341-4.824-14.667-6.911a1.185,1.185,0,0,1-.051-1.039,1.091,1.091,0,0,1,.946-.524H46.386a.994.994,0,0,1,.9.524.934.934,0,0,1-.051,1.039c-1.326,2.078-5.39,6.911-14.667,6.911h.008ZM1.294,279.941c1.326,1.985,5.112,6.2,13.577,6.2H32.563c8.466,0,12.251-4.208,13.577-6.2Z" transform="translate(0 -255.336)" fill="#cb9842"/>
    <path id="Path_199" data-name="Path 199" d="M68.288,72.394a.546.546,0,0,1-.566-.566c0-9.277-7-18.638-20.345-18.638S27.032,62.551,27.032,71.828s-.237.566-.566.566a.546.546,0,0,1-.566-.566,19.522,19.522,0,0,1,5.534-13.577C35.4,54.229,40.9,52.1,47.377,52.1s11.972,2.129,15.943,6.151a19.391,19.391,0,0,1,5.534,13.577c0,5.061-.237.566-.566.566Z" transform="translate(-23.651 -47.79)" fill="#cb9842"/>
    <path id="Path_200" data-name="Path 200" d="M68.466,128.179a.546.546,0,0,1-.566-.566,15.789,15.789,0,0,1,9.513-14.524.575.575,0,1,1,.473,1.048,14.712,14.712,0,0,0-8.846,13.484.546.546,0,0,1-.566.566h0Z" transform="translate(-62.103 -103.575)" fill="#cb9842"/>
    <path id="Path_201" data-name="Path 201" d="M242.787,5.535a.593.593,0,0,1-.287-.051.551.551,0,0,1-.237-.76,2.627,2.627,0,0,0,.287-1.183,2.509,2.509,0,0,0-5.019,0c0,1.377.093.8.287,1.183a.563.563,0,1,1-1,.524,3.6,3.6,0,0,1-.422-1.707,3.641,3.641,0,0,1,7.283,0c0,2.036-.144,1.183-.422,1.707a.446.446,0,0,1-.473.287Z" transform="translate(-216.366)" fill="#cb9842"/>
    <path id="Path_202" data-name="Path 202" d="M119.039,370.575H86.3l.71-2.222a3.813,3.813,0,0,1,3.641-2.653H114.6a3.86,3.86,0,0,1,3.641,2.653Zm-31.176-1.09h29.622l-.237-.76a2.747,2.747,0,0,0-2.6-1.893H90.7a2.747,2.747,0,0,0-2.6,1.893Z" transform="translate(-78.948 -334.894)" fill="#cb9842"/>
  </g>
</svg>
